<?xml version="1.0" encoding="UTF-8"?><svg id="Layer_1" xmlns="http://www.w3.org/2000/svg" viewBox="0 0 130 63"><defs><style>.cls-1{fill:#f7f8f9;}.cls-2{opacity:.8;}.cls-3{opacity:.95;}</style></defs><g class="cls-3"><path class="cls-1" d="m3.59,20.7h11.82l3.5,11.82c.9,3.14,1.99,7.42,1.99,7.42h.12s1.15-4.28,2.05-7.42l3.5-11.82h11.46l-10.55,30.76h-13.33L3.59,20.7Z"/><path class="cls-1" d="m39.65,8.34h22.26v8.62h-22.26v-8.62Zm0,12.36h22.26v30.76h-22.26v-30.76Z"/><path class="cls-1" d="m63.94,36.14c0-9.35,6.75-16.34,16.89-16.34,8.68,0,14.47,5.13,15.26,12.3h-10.97c-.6-2.77-1.93-4.34-4.4-4.34-3.5,0-5.19,3.2-5.19,8.38s1.81,8.26,5.31,8.26c2.77,0,4.16-1.87,4.46-5.37h10.98c0,7.6-6.21,13.39-15.44,13.39-10.13,0-16.89-6.94-16.89-16.28Z"/></g><g class="cls-2"><path class="cls-1" d="m76.57,35.68c0-1.61.91-2.72,2.2-2.72.72,0,1.18.33,1.46.76h.03v-2.65h1.37v7.18h-1.32v-.67h-.02c-.3.49-.81.82-1.54.82-1.3,0-2.18-1.06-2.18-2.72Zm3.72.03c0-.98-.32-1.65-1.2-1.65-.75,0-1.14.66-1.14,1.62s.39,1.58,1.1,1.58c.81,0,1.24-.6,1.24-1.55Z"/><path class="cls-1" d="m82.26,35.67c0-1.53,1.03-2.71,2.54-2.71,1.66,0,2.54,1.26,2.54,3.1h-3.74c.1.79.54,1.29,1.32,1.29.53,0,.84-.24.99-.63h1.35c-.19.91-1,1.69-2.33,1.69-1.71,0-2.67-1.2-2.67-2.73Zm1.37-.55h2.29c-.04-.65-.47-1.11-1.1-1.11-.72,0-1.07.43-1.2,1.11Z"/><path class="cls-1" d="m92.75,37.68h-.02c-.26.39-.63.69-1.52.69-1.06,0-1.8-.55-1.8-1.58,0-1.14.92-1.5,2.07-1.66.85-.12,1.25-.19,1.25-.58s-.29-.61-.86-.61c-.64,0-.95.23-.99.72h-1.22c.04-.9.71-1.7,2.22-1.7s2.17.69,2.17,1.9v2.62c0,.39.06.62.18.71v.05h-1.32c-.08-.1-.13-.34-.16-.57Zm0-1.25v-.77c-.24.14-.61.22-.95.3-.71.16-1.07.32-1.07.8s.32.65.8.65c.78,0,1.22-.48,1.22-.98Z"/><path class="cls-1" d="m96.23,33.92h.03c.31-.58.66-.88,1.27-.88.15,0,.24,0,.32.04v1.2h-.03c-.89-.09-1.54.38-1.54,1.47v2.51h-1.37v-5.15h1.32v.82Z"/><path class="cls-1" d="m101.38,37.68h-.02c-.26.39-.63.69-1.52.69-1.06,0-1.8-.55-1.8-1.58,0-1.14.92-1.5,2.07-1.66.85-.12,1.25-.19,1.25-.58s-.29-.61-.86-.61c-.64,0-.95.23-.99.72h-1.22c.04-.9.71-1.7,2.22-1.7s2.17.69,2.17,1.9v2.62c0,.39.06.62.18.71v.05h-1.32c-.08-.1-.13-.34-.16-.57Zm0-1.25v-.77c-.24.14-.61.22-.95.3-.71.16-1.07.32-1.07.8s.32.65.8.65c.78,0,1.22-.48,1.22-.98Z"/><path class="cls-1" d="m104.88,33.8h.03c.35-.55.82-.84,1.53-.84,1.07,0,1.78.8,1.78,1.93v3.37h-1.37v-3.17c0-.55-.32-.94-.89-.94-.6,0-1.04.48-1.04,1.19v2.92h-1.37v-5.15h1.34v.7Z"/><path class="cls-1" d="m108.89,37.21l2.65-3v-.03h-2.35v-1.07h3.94v1.09l-2.59,2.93v.03h2.72v1.1h-4.37v-1.05Z"/><path class="cls-1" d="m113.53,35.67c0-1.53,1.03-2.71,2.54-2.71,1.66,0,2.54,1.26,2.54,3.1h-3.74c.1.79.54,1.29,1.32,1.29.53,0,.84-.24.99-.63h1.35c-.19.91-1,1.69-2.33,1.69-1.71,0-2.67-1.2-2.67-2.73Zm1.37-.55h2.29c-.04-.65-.47-1.11-1.09-1.11-.72,0-1.08.43-1.2,1.11Z"/><path class="cls-1" d="m118.85,33.1h.71v-1.61h1.34v1.61h.88v.9h-.88v2.73c0,.38.21.51.51.51.17,0,.4,0,.4,0v1s-.31.02-.85.02c-.66,0-1.4-.26-1.4-1.24v-3.03h-.71v-.9Z"/><path class="cls-1" d="m125.62,37.68h-.02c-.26.39-.63.69-1.52.69-1.06,0-1.8-.55-1.8-1.58,0-1.14.92-1.5,2.07-1.66.85-.12,1.25-.19,1.25-.58s-.29-.61-.86-.61c-.64,0-.95.23-.99.72h-1.22c.04-.9.71-1.7,2.22-1.7s2.17.69,2.17,1.9v2.62c0,.39.06.62.18.71v.05h-1.32c-.08-.1-.13-.34-.16-.57Zm.01-1.25v-.77c-.24.14-.61.22-.96.3-.71.16-1.07.32-1.07.8s.32.65.8.65c.78,0,1.22-.48,1.22-.98Z"/></g></svg>