<?xml version="1.0" encoding="utf-8"?>
<!-- Generator: Adobe Illustrator 27.3.1, SVG Export Plug-In . SVG Version: 6.00 Build 0)  -->
<svg version="1.1" id="Layer_1" xmlns="http://www.w3.org/2000/svg" xmlns:xlink="http://www.w3.org/1999/xlink" x="0px" y="0px"
	 viewBox="0 0 48 48" style="enable-background:new 0 0 48 48;" xml:space="preserve">
<style type="text/css">
	.st0{opacity:0.95;}
	.st1{fill:#191C1A;}
	.st2{opacity:0.8;}
</style>
<g class="st0">
	<path class="st1" d="M2,20.8h4.3l1.3,4.3c0.3,1.1,0.7,2.7,0.7,2.7h0c0,0,0.4-1.5,0.7-2.7l1.3-4.3h4.1l-3.8,11.1H5.8L2,20.8z"/>
	<path class="st1" d="M15,16.3h8.1v3.1H15V16.3z M15,20.8h8.1v11.1H15V20.8z"/>
	<path class="st1" d="M23.8,26.4c0-3.4,2.4-5.9,6.1-5.9c3.1,0,5.2,1.9,5.5,4.4h-4c-0.2-1-0.7-1.6-1.6-1.6c-1.3,0-1.9,1.2-1.9,3
		c0,1.9,0.7,3,1.9,3c1,0,1.5-0.7,1.6-1.9h4c0,2.7-2.2,4.8-5.6,4.8C26.3,32.3,23.8,29.8,23.8,26.4z"/>
</g>
<g class="st2">
	<path class="st1" d="M28.4,26.2c0-0.6,0.3-1,0.8-1c0.3,0,0.4,0.1,0.5,0.3h0v-1h0.5v2.6h-0.5v-0.2h0c-0.1,0.2-0.3,0.3-0.6,0.3
		C28.7,27.2,28.4,26.8,28.4,26.2z M29.7,26.2c0-0.4-0.1-0.6-0.4-0.6c-0.3,0-0.4,0.2-0.4,0.6c0,0.4,0.1,0.6,0.4,0.6
		C29.6,26.8,29.7,26.6,29.7,26.2z"/>
	<path class="st1" d="M30.5,26.2c0-0.6,0.4-1,0.9-1c0.6,0,0.9,0.5,0.9,1.1h-1.4c0,0.3,0.2,0.5,0.5,0.5c0.2,0,0.3-0.1,0.4-0.2h0.5
		c-0.1,0.3-0.4,0.6-0.8,0.6C30.8,27.2,30.5,26.8,30.5,26.2z M31,26h0.8c0-0.2-0.2-0.4-0.4-0.4C31.1,25.6,31,25.8,31,26z"/>
	<path class="st1" d="M34.3,26.9L34.3,26.9c-0.1,0.1-0.2,0.3-0.6,0.3c-0.4,0-0.7-0.2-0.7-0.6c0-0.4,0.3-0.5,0.7-0.6
		c0.3,0,0.5-0.1,0.5-0.2c0-0.1-0.1-0.2-0.3-0.2c-0.2,0-0.3,0.1-0.4,0.3h-0.4c0-0.3,0.3-0.6,0.8-0.6c0.6,0,0.8,0.3,0.8,0.7v0.9
		c0,0.1,0,0.2,0.1,0.3v0h-0.5C34.3,27.1,34.3,27,34.3,26.9z M34.3,26.5v-0.3c-0.1,0.1-0.2,0.1-0.3,0.1c-0.3,0.1-0.4,0.1-0.4,0.3
		c0,0.2,0.1,0.2,0.3,0.2C34.1,26.8,34.3,26.7,34.3,26.5z"/>
	<path class="st1" d="M35.5,25.6L35.5,25.6c0.1-0.2,0.3-0.3,0.5-0.3c0.1,0,0.1,0,0.1,0v0.4h0c-0.3,0-0.6,0.1-0.6,0.5v0.9H35v-1.9
		h0.5V25.6z"/>
	<path class="st1" d="M37.4,26.9L37.4,26.9c-0.1,0.1-0.2,0.3-0.6,0.3c-0.4,0-0.7-0.2-0.7-0.6c0-0.4,0.3-0.5,0.7-0.6
		c0.3,0,0.5-0.1,0.5-0.2c0-0.1-0.1-0.2-0.3-0.2c-0.2,0-0.3,0.1-0.4,0.3h-0.4c0-0.3,0.3-0.6,0.8-0.6c0.6,0,0.8,0.3,0.8,0.7v0.9
		c0,0.1,0,0.2,0.1,0.3v0h-0.5C37.4,27.1,37.4,27,37.4,26.9z M37.4,26.5v-0.3c-0.1,0.1-0.2,0.1-0.3,0.1c-0.3,0.1-0.4,0.1-0.4,0.3
		c0,0.2,0.1,0.2,0.3,0.2C37.2,26.8,37.4,26.7,37.4,26.5z"/>
	<path class="st1" d="M38.6,25.5L38.6,25.5c0.1-0.2,0.3-0.3,0.6-0.3c0.4,0,0.6,0.3,0.6,0.7v1.2h-0.5V26c0-0.2-0.1-0.3-0.3-0.3
		c-0.2,0-0.4,0.2-0.4,0.4v1.1h-0.5v-1.9h0.5V25.5z"/>
	<path class="st1" d="M40.1,26.8l1-1.1v0h-0.9v-0.4h1.4v0.4l-0.9,1.1v0h1v0.4h-1.6V26.8z"/>
	<path class="st1" d="M41.8,26.2c0-0.6,0.4-1,0.9-1c0.6,0,0.9,0.5,0.9,1.1h-1.4c0,0.3,0.2,0.5,0.5,0.5c0.2,0,0.3-0.1,0.4-0.2h0.5
		c-0.1,0.3-0.4,0.6-0.8,0.6C42.1,27.2,41.8,26.8,41.8,26.2z M42.3,26h0.8c0-0.2-0.2-0.4-0.4-0.4C42.4,25.6,42.3,25.8,42.3,26z"/>
	<path class="st1" d="M43.7,25.3H44v-0.6h0.5v0.6h0.3v0.3h-0.3v1c0,0.1,0.1,0.2,0.2,0.2c0.1,0,0.1,0,0.1,0v0.4c0,0-0.1,0-0.3,0
		c-0.2,0-0.5-0.1-0.5-0.4v-1.1h-0.3V25.3z"/>
	<path class="st1" d="M46.1,26.9L46.1,26.9c-0.1,0.1-0.2,0.3-0.6,0.3c-0.4,0-0.7-0.2-0.7-0.6c0-0.4,0.3-0.5,0.7-0.6
		c0.3,0,0.5-0.1,0.5-0.2c0-0.1-0.1-0.2-0.3-0.2c-0.2,0-0.3,0.1-0.4,0.3H45c0-0.3,0.3-0.6,0.8-0.6c0.6,0,0.8,0.3,0.8,0.7v0.9
		c0,0.1,0,0.2,0.1,0.3v0h-0.5C46.2,27.1,46.2,27,46.1,26.9z M46.1,26.5v-0.3c-0.1,0.1-0.2,0.1-0.3,0.1c-0.3,0.1-0.4,0.1-0.4,0.3
		c0,0.2,0.1,0.2,0.3,0.2C46,26.8,46.1,26.7,46.1,26.5z"/>
</g>
</svg>
